<svg width="28" height="28" viewBox="0 0 28 28" fill="none" xmlns="http://www.w3.org/2000/svg">
<g clip-path="url(#clip0_21_192)">
<path d="M7.42676 17.7434C9.06806 18.0366 10.705 17.9045 12.4314 17.3393C13.4382 17.0176 14.3984 16.5557 15.2858 15.9665C15.4528 16.159 15.618 16.3505 15.7816 16.541C16.1832 17.0081 16.5634 17.4494 16.9609 17.8921C18.9037 20.056 21.0112 22.1136 23.0495 24.1035C23.42 24.4653 23.7903 24.8273 24.1603 25.1896C24.4505 25.4644 24.7692 25.7047 25.1105 25.9061C25.1948 25.9527 25.2894 25.9757 25.3848 25.9728C25.4847 25.9744 25.5836 25.9528 25.6745 25.9097C25.7237 25.8841 25.7674 25.8484 25.803 25.8048C25.8387 25.7613 25.8656 25.7108 25.8822 25.6563C25.9017 25.5914 25.9087 25.5231 25.9027 25.4553C25.8969 25.3876 25.8782 25.3218 25.8477 25.2615C25.6864 24.9113 25.4894 24.5802 25.2599 24.2738C24.8901 23.8185 24.4967 23.3844 24.0815 22.9735C23.1143 22.002 22.127 21.0188 21.1721 20.0679C20.51 19.4087 19.8483 18.749 19.1872 18.0887C18.5047 17.4065 17.8401 16.7362 17.1366 16.0256C16.85 15.7363 16.5616 15.4455 16.2715 15.153L16.3091 15.1102C16.3638 15.0482 16.4062 15 16.4513 14.9545C17.551 13.8491 18.154 12.4661 18.2434 10.8444C18.3988 8.02829 17.4843 5.63766 15.5258 3.7381C14.5663 2.78529 13.3216 2.20229 11.9985 2.08608C10.7118 1.95759 9.41339 2.11071 8.18721 2.53556C6.30737 3.19923 4.71162 4.47244 3.44452 6.31993C2.35277 7.91166 1.91518 9.6778 2.14391 11.5693C2.2931 12.8036 2.77428 13.9731 3.70392 15.3619C4.58242 16.6737 5.79995 17.4526 7.42676 17.7434ZM9.37076 3.98807C9.80805 3.94952 10.2602 3.90977 10.7043 3.89452C10.7795 3.89208 10.854 3.89081 10.9278 3.89074C12.9519 3.89074 14.5072 4.84393 15.5531 6.7264C16.4892 8.41088 16.7539 10.0252 16.3628 11.6615C16.2287 12.275 15.961 12.8486 15.5801 13.338C15.1074 13.9346 14.533 14.4357 13.8854 14.8161C12.4069 15.6874 10.7439 16.1663 9.04426 16.2102C8.88126 16.1915 8.71786 16.1749 8.55447 16.1584C8.19437 16.122 7.82193 16.0841 7.46114 16.023C6.56436 15.8827 5.74947 15.4023 5.1738 14.6747C4.4722 13.8252 3.96569 12.8212 3.69246 11.7388C3.37911 10.484 3.49331 9.1554 4.01572 7.97808C4.59897 6.63336 5.37363 5.64122 6.38408 4.94501C7.19264 4.38803 7.92978 4.10157 8.70366 4.0438C8.92612 4.02723 9.1482 4.00759 9.37037 3.98807H9.37076Z" fill="#353534"/>
</g>
<defs>
<clipPath id="clip0_21_192">
<rect width="24" height="24" fill="white" transform="translate(2 2)"/>
</clipPath>
</defs>
</svg>
